<svg id="visual" viewBox="0 0 900 600" width="900" height="600" xmlns="http://www.w3.org/2000/svg" xmlns:xlink="http://www.w3.org/1999/xlink" version="1.1"><rect x="0" y="0" width="900" height="600" fill="#1e262e"></rect><path d="M0 384L64 364L129 387L193 377L257 404L321 365L386 371L450 368L514 361L579 372L643 387L707 363L771 365L836 369L900 375L900 601L836 601L771 601L707 601L643 601L579 601L514 601L450 601L386 601L321 601L257 601L193 601L129 601L64 601L0 601Z" fill="#29313a"></path><path d="M0 426L64 416L129 428L193 421L257 391L321 391L386 395L450 424L514 392L579 393L643 402L707 422L771 390L836 400L900 427L900 601L836 601L771 601L707 601L643 601L579 601L514 601L450 601L386 601L321 601L257 601L193 601L129 601L64 601L0 601Z" fill="#2c3640"></path><path d="M0 430L64 433L129 442L193 443L257 453L321 439L386 452L450 426L514 437L579 449L643 458L707 448L771 447L836 450L900 457L900 601L836 601L771 601L707 601L643 601L579 601L514 601L450 601L386 601L321 601L257 601L193 601L129 601L64 601L0 601Z" fill="#303b47"></path><path d="M0 459L64 476L129 458L193 473L257 465L321 459L386 471L450 474L514 459L579 476L643 462L707 478L771 468L836 478L900 454L900 601L836 601L771 601L707 601L643 601L579 601L514 601L450 601L386 601L321 601L257 601L193 601L129 601L64 601L0 601Z" fill="#33404d"></path><path d="M0 510L64 495L129 500L193 492L257 514L321 491L386 508L450 488L514 513L579 512L643 498L707 505L771 516L836 510L900 499L900 601L836 601L771 601L707 601L643 601L579 601L514 601L450 601L386 601L321 601L257 601L193 601L129 601L64 601L0 601Z" fill="#364554"></path><path d="M0 519L64 542L129 530L193 537L257 543L321 530L386 529L450 523L514 542L579 531L643 521L707 540L771 536L836 524L900 545L900 601L836 601L771 601L707 601L643 601L579 601L514 601L450 601L386 601L321 601L257 601L193 601L129 601L64 601L0 601Z" fill="#3a4b5a"></path><path d="M0 559L64 565L129 569L193 571L257 571L321 552L386 555L450 560L514 565L579 555L643 570L707 562L771 563L836 557L900 569L900 601L836 601L771 601L707 601L643 601L579 601L514 601L450 601L386 601L321 601L257 601L193 601L129 601L64 601L0 601Z" fill="#3d5061"></path></svg>