<svg id="visual" viewBox="0 0 900 600" width="900" height="600" xmlns="http://www.w3.org/2000/svg" xmlns:xlink="http://www.w3.org/1999/xlink" version="1.1"><path d="M0 121L60 121L60 103L120 103L120 199L180 199L180 151L240 151L240 139L300 139L300 139L360 139L360 91L420 91L420 145L480 145L480 151L540 151L540 67L600 67L600 169L660 169L660 199L720 199L720 163L780 163L780 79L840 79L840 85L900 85L900 103L900 0L900 0L840 0L840 0L780 0L780 0L720 0L720 0L660 0L660 0L600 0L600 0L540 0L540 0L480 0L480 0L420 0L420 0L360 0L360 0L300 0L300 0L240 0L240 0L180 0L180 0L120 0L120 0L60 0L60 0L0 0Z" fill="#3d5061"></path><path d="M0 157L60 157L60 133L120 133L120 217L180 217L180 193L240 193L240 169L300 169L300 175L360 175L360 127L420 127L420 181L480 181L480 187L540 187L540 109L600 109L600 205L660 205L660 217L720 217L720 193L780 193L780 115L840 115L840 121L900 121L900 133L900 101L900 83L840 83L840 77L780 77L780 161L720 161L720 197L660 197L660 167L600 167L600 65L540 65L540 149L480 149L480 143L420 143L420 89L360 89L360 137L300 137L300 137L240 137L240 149L180 149L180 197L120 197L120 101L60 101L60 119L0 119Z" fill="#394a5a"></path><path d="M0 199L60 199L60 193L120 193L120 253L180 253L180 247L240 247L240 217L300 217L300 229L360 229L360 199L420 199L420 217L480 217L480 217L540 217L540 157L600 157L600 247L660 247L660 277L720 277L720 223L780 223L780 181L840 181L840 151L900 151L900 187L900 131L900 119L840 119L840 113L780 113L780 191L720 191L720 215L660 215L660 203L600 203L600 107L540 107L540 185L480 185L480 179L420 179L420 125L360 125L360 173L300 173L300 167L240 167L240 191L180 191L180 215L120 215L120 131L60 131L60 155L0 155Z" fill="#354554"></path><path d="M0 235L60 235L60 235L120 235L120 289L180 289L180 283L240 283L240 265L300 265L300 271L360 271L360 253L420 253L420 259L480 259L480 259L540 259L540 187L600 187L600 289L660 289L660 319L720 319L720 271L780 271L780 211L840 211L840 199L900 199L900 211L900 185L900 149L840 149L840 179L780 179L780 221L720 221L720 275L660 275L660 245L600 245L600 155L540 155L540 215L480 215L480 215L420 215L420 197L360 197L360 227L300 227L300 215L240 215L240 245L180 245L180 251L120 251L120 191L60 191L60 197L0 197Z" fill="#313f4d"></path><path d="M0 391L60 391L60 361L120 361L120 391L180 391L180 409L240 409L240 349L300 349L300 343L360 343L360 433L420 433L420 385L480 385L480 337L540 337L540 331L600 331L600 397L660 397L660 421L720 421L720 367L780 367L780 403L840 403L840 403L900 403L900 409L900 209L900 197L840 197L840 209L780 209L780 269L720 269L720 317L660 317L660 287L600 287L600 185L540 185L540 257L480 257L480 257L420 257L420 251L360 251L360 269L300 269L300 263L240 263L240 281L180 281L180 287L120 287L120 233L60 233L60 233L0 233Z" fill="#2d3a47"></path><path d="M0 427L60 427L60 397L120 397L120 415L180 415L180 427L240 427L240 397L300 397L300 385L360 385L360 463L420 463L420 433L480 433L480 385L540 385L540 367L600 367L600 445L660 445L660 451L720 451L720 391L780 391L780 433L840 433L840 445L900 445L900 457L900 407L900 401L840 401L840 401L780 401L780 365L720 365L720 419L660 419L660 395L600 395L600 329L540 329L540 335L480 335L480 383L420 383L420 431L360 431L360 341L300 341L300 347L240 347L240 407L180 407L180 389L120 389L120 359L60 359L60 389L0 389Z" fill="#293541"></path><path d="M0 493L60 493L60 463L120 463L120 463L180 463L180 469L240 469L240 469L300 469L300 445L360 445L360 517L420 517L420 475L480 475L480 475L540 475L540 439L600 439L600 517L660 517L660 499L720 499L720 457L780 457L780 469L840 469L840 499L900 499L900 499L900 455L900 443L840 443L840 431L780 431L780 389L720 389L720 449L660 449L660 443L600 443L600 365L540 365L540 383L480 383L480 431L420 431L420 461L360 461L360 383L300 383L300 395L240 395L240 425L180 425L180 413L120 413L120 395L60 395L60 425L0 425Z" fill="#25303a"></path><path d="M0 541L60 541L60 511L120 511L120 505L180 505L180 523L240 523L240 511L300 511L300 505L360 505L360 547L420 547L420 517L480 517L480 505L540 505L540 499L600 499L600 553L660 553L660 547L720 547L720 517L780 517L780 511L840 511L840 535L900 535L900 523L900 497L900 497L840 497L840 467L780 467L780 455L720 455L720 497L660 497L660 515L600 515L600 437L540 437L540 473L480 473L480 473L420 473L420 515L360 515L360 443L300 443L300 467L240 467L240 467L180 467L180 461L120 461L120 461L60 461L60 491L0 491Z" fill="#222b34"></path><path d="M0 601L60 601L60 601L120 601L120 601L180 601L180 601L240 601L240 601L300 601L300 601L360 601L360 601L420 601L420 601L480 601L480 601L540 601L540 601L600 601L600 601L660 601L660 601L720 601L720 601L780 601L780 601L840 601L840 601L900 601L900 601L900 521L900 533L840 533L840 509L780 509L780 515L720 515L720 545L660 545L660 551L600 551L600 497L540 497L540 503L480 503L480 515L420 515L420 545L360 545L360 503L300 503L300 509L240 509L240 521L180 521L180 503L120 503L120 509L60 509L60 539L0 539Z" fill="#1e262e"></path></svg>